<svg width="421" height="126" viewBox="0 0 421 126" fill="none" xmlns="http://www.w3.org/2000/svg">
<g clip-path="url(#clip0_2805_15)">
<g filter="url(#filter0_d_2805_15)">
<path d="M115.872 93.4933L91.3715 107.398C85.2491 110.872 77.7509 110.872 71.6285 107.398L47.1285 93.4933C40.8682 89.9405 37 83.2975 37 76.0993V46.9007C37 39.7025 40.8681 33.0595 47.1285 29.5067L71.6285 15.6023C77.7509 12.1277 85.2491 12.1277 91.3715 15.6023L115.872 29.5067C122.132 33.0595 126 39.7025 126 46.9007V76.0993C126 83.2975 122.132 89.9405 115.872 93.4933Z" fill="#74BB8D"/>
<path d="M115.872 93.4933L91.3715 107.398C85.2491 110.872 77.7509 110.872 71.6285 107.398L47.1285 93.4933C40.8682 89.9405 37 83.2975 37 76.0993V46.9007C37 39.7025 40.8681 33.0595 47.1285 29.5067L71.6285 15.6023C77.7509 12.1277 85.2491 12.1277 91.3715 15.6023L115.872 29.5067C122.132 33.0595 126 39.7025 126 46.9007V76.0993C126 83.2975 122.132 89.9405 115.872 93.4933Z" stroke="white" stroke-width="4"/>
</g>
<path d="M81.2635 13.0521C78.1518 18.9348 70.4757 45.9803 73.9219 70.462C75.9406 84.8025 55.7999 82.6522 53.9108 71.2137C52.6788 63.756 57.4959 51.0559 76.9642 58.2919C90.1354 63.1874 99.8443 62.3539 109.718 59.0477" stroke="white" stroke-width="10"/>
<path d="M295.264 31.475C281.677 14.2954 268.398 26.658 263.457 34.9867C276.156 30.8812 286.201 33.7314 289.475 34.8791C292.748 36.0268 294.537 35.8609 295.264 31.475Z" fill="url(#paint0_linear_2805_15)"/>
<path d="M156.479 64V28.5H166.479V55.3H181.279L180.679 64H156.479ZM192.966 38.3V64H183.666V38.3H192.966ZM188.266 36.35C186.533 36.35 185.15 35.8333 184.116 34.8C183.083 33.7333 182.566 32.4667 182.566 31C182.566 29.5333 183.066 28.2833 184.066 27.25C185.1 26.1833 186.5 25.65 188.266 25.65C190.033 25.65 191.416 26.1833 192.416 27.25C193.45 28.2833 193.966 29.5333 193.966 31C193.966 32.4667 193.45 33.7333 192.416 34.8C191.416 35.8333 190.033 36.35 188.266 36.35ZM206.968 64.55C204.202 64.55 202.035 63.8 200.468 62.3C198.935 60.8 198.168 58.6167 198.168 55.75V27H207.468V54.9C207.468 55.5333 207.635 56 207.968 56.3C208.302 56.5667 208.735 56.7 209.268 56.7C209.935 56.7 210.518 56.5167 211.018 56.15L213.168 62.75C212.568 63.25 211.718 63.6667 210.618 64C209.518 64.3667 208.302 64.55 206.968 64.55ZM220.426 74.2C218.926 74.2 217.392 73.9667 215.826 73.5C214.292 73.0667 213.059 72.4833 212.126 71.75L215.876 64C216.442 64.4333 217.076 64.7833 217.776 65.05C218.509 65.3167 219.209 65.45 219.876 65.45C220.876 65.45 221.642 65.2333 222.176 64.8C222.709 64.4 223.142 63.7833 223.476 62.95L224.626 60.05L225.426 58.95L234.176 36.65H244.876L233.626 64.55C232.626 67.05 231.459 69 230.126 70.4C228.826 71.8 227.359 72.7833 225.726 73.35C224.126 73.9167 222.359 74.2 220.426 74.2ZM223.076 65.25L211.176 36.65H222.776L230.976 57.95L223.076 65.25ZM292.789 56.95C291.256 59.3833 289.156 61.2667 286.489 62.6C283.823 63.9 280.856 64.55 277.589 64.55C273.589 64.55 270.156 63.85 267.289 62.45C264.456 61.05 262.289 59.0333 260.789 56.4C259.289 53.7667 258.539 50.6333 258.539 47C258.539 43.1667 259.356 39.8333 260.989 37C262.656 34.1667 264.973 31.9667 267.939 30.4C270.906 28.8 274.356 28 278.289 28C281.756 28 284.673 28.6167 287.039 29.85C289.406 31.05 291.339 32.9167 292.839 35.45L285.289 40.8C284.656 39.5667 283.673 38.6 282.339 37.9C281.006 37.1667 279.539 36.8 277.939 36.8C275.006 36.7667 272.723 37.6833 271.089 39.55C269.489 41.3833 268.689 43.7833 268.689 46.75C268.689 49.5833 269.423 51.8 270.889 53.4C272.389 54.9667 274.639 55.75 277.639 55.75C281.106 55.75 283.706 54.25 285.439 51.25L292.789 56.95ZM311.457 64V58.95L310.807 57.7V48.4C310.807 46.9 310.341 45.75 309.407 44.95C308.507 44.1167 307.057 43.7 305.057 43.7C303.757 43.7 302.441 43.9167 301.107 44.35C299.774 44.75 298.641 45.3167 297.707 46.05L294.507 39.6C296.041 38.6 297.874 37.8333 300.007 37.3C302.174 36.7333 304.324 36.45 306.457 36.45C310.857 36.45 314.257 37.4667 316.657 39.5C319.091 41.5 320.307 44.65 320.307 48.95V64H311.457ZM303.457 64.45C301.291 64.45 299.457 64.0833 297.957 63.35C296.457 62.6167 295.307 61.6167 294.507 60.35C293.741 59.0833 293.357 57.6667 293.357 56.1C293.357 54.4333 293.774 53 294.607 51.8C295.474 50.5667 296.791 49.6333 298.557 49C300.324 48.3333 302.607 48 305.407 48H311.807V52.95H306.707C305.174 52.95 304.091 53.2 303.457 53.7C302.857 54.2 302.557 54.8667 302.557 55.7C302.557 56.5333 302.874 57.2 303.507 57.7C304.141 58.2 305.007 58.45 306.107 58.45C307.141 58.45 308.074 58.2 308.907 57.7C309.774 57.1667 310.407 56.3667 310.807 55.3L312.107 58.8C311.607 60.6667 310.624 62.0833 309.157 63.05C307.724 63.9833 305.824 64.45 303.457 64.45ZM344.704 47.35C343.971 47.0167 343.104 46.85 342.104 46.85C339.471 46.85 337.654 48.2333 336.654 51C335.654 53.7667 335.154 58.1 335.154 64H325.904V47.3L325.804 38.3H335.054L334.654 44.9C335.454 42.5 336.604 40.75 338.104 39.65C339.604 38.5167 341.271 37.95 343.104 37.95C343.671 37.95 344.204 37.9833 344.704 38.05C345.237 38.1167 345.804 38.25 346.404 38.45L344.704 47.35ZM360.634 64.55C357.7 64.55 355.15 64.0333 352.984 63C350.817 61.9333 349.134 60.4167 347.934 58.45C346.767 56.4833 346.184 54.1667 346.184 51.5C346.184 48.8 346.767 46.4333 347.934 44.4C349.134 42.3667 350.75 40.7833 352.784 39.65C354.817 38.5167 357.084 37.95 359.584 37.95C362.65 37.95 365.1 38.6167 366.934 39.95C368.767 41.2833 370.017 43.1333 370.684 45.5C371.384 47.8333 371.517 50.5333 371.084 53.6H355.684C355.917 54.4333 356.517 55.1667 357.484 55.8C358.45 56.4 359.75 56.7 361.384 56.7C362.317 56.7 363.2 56.55 364.034 56.25C364.9 55.9167 365.6 55.4667 366.134 54.9L370.984 60.55C370.05 61.65 368.75 62.6 367.084 63.4C365.45 64.1667 363.3 64.55 360.634 64.55ZM359.984 44.5C358.95 44.5 358.067 44.7833 357.334 45.35C356.6 45.9167 356.1 46.7167 355.834 47.75H363.384C363.284 45.5833 362.15 44.5 359.984 44.5Z" fill="black"/>
<path d="M160.376 90.256C159.48 90.256 158.648 90.1173 157.88 89.84C157.123 89.552 156.461 89.1467 155.896 88.624C155.341 88.1013 154.909 87.4827 154.6 86.768C154.291 86.0533 154.136 85.264 154.136 84.4C154.136 83.536 154.291 82.7467 154.6 82.032C154.909 81.3173 155.341 80.6987 155.896 80.176C156.461 79.6533 157.123 79.2533 157.88 78.976C158.648 78.688 159.48 78.544 160.376 78.544C161.475 78.544 162.445 78.736 163.288 79.12C164.141 79.504 164.845 80.0587 165.4 80.784L163.016 82.912C162.685 82.496 162.317 82.176 161.912 81.952C161.517 81.7173 161.069 81.6 160.568 81.6C160.173 81.6 159.816 81.664 159.496 81.792C159.176 81.92 158.899 82.1067 158.664 82.352C158.44 82.5973 158.264 82.896 158.136 83.248C158.008 83.5893 157.944 83.9733 157.944 84.4C157.944 84.8267 158.008 85.216 158.136 85.568C158.264 85.9093 158.44 86.2027 158.664 86.448C158.899 86.6933 159.176 86.88 159.496 87.008C159.816 87.136 160.173 87.2 160.568 87.2C161.069 87.2 161.517 87.088 161.912 86.864C162.317 86.6293 162.685 86.304 163.016 85.888L165.4 88.016C164.845 88.7307 164.141 89.2853 163.288 89.68C162.445 90.064 161.475 90.256 160.376 90.256ZM170.752 90.16C169.76 90.16 168.88 89.968 168.112 89.584C167.355 89.1893 166.757 88.6507 166.32 87.968C165.883 87.2853 165.664 86.5013 165.664 85.616C165.664 84.7307 165.883 83.9467 166.32 83.264C166.757 82.5813 167.355 82.048 168.112 81.664C168.88 81.28 169.76 81.088 170.752 81.088C171.744 81.088 172.624 81.28 173.392 81.664C174.16 82.048 174.757 82.5813 175.184 83.264C175.621 83.9467 175.84 84.7307 175.84 85.616C175.84 86.5013 175.621 87.2853 175.184 87.968C174.757 88.6507 174.16 89.1893 173.392 89.584C172.624 89.968 171.744 90.16 170.752 90.16ZM170.752 87.344C171.019 87.344 171.259 87.28 171.472 87.152C171.685 87.024 171.856 86.832 171.984 86.576C172.112 86.3093 172.176 85.9893 172.176 85.616C172.176 85.232 172.112 84.9173 171.984 84.672C171.856 84.416 171.685 84.224 171.472 84.096C171.259 83.968 171.019 83.904 170.752 83.904C170.485 83.904 170.245 83.968 170.032 84.096C169.819 84.224 169.648 84.416 169.52 84.672C169.392 84.9173 169.328 85.232 169.328 85.616C169.328 85.9893 169.392 86.3093 169.52 86.576C169.648 86.832 169.819 87.024 170.032 87.152C170.245 87.28 170.485 87.344 170.752 87.344ZM188.556 81.088C189.217 81.088 189.809 81.2267 190.332 81.504C190.865 81.7707 191.281 82.192 191.58 82.768C191.889 83.344 192.044 84.0907 192.044 85.008V90H188.428V85.632C188.428 85.088 188.337 84.704 188.156 84.48C187.975 84.2453 187.74 84.128 187.452 84.128C187.239 84.128 187.047 84.1813 186.876 84.288C186.705 84.3947 186.567 84.5653 186.46 84.8C186.364 85.024 186.316 85.3333 186.316 85.728V90H182.7V85.632C182.7 85.088 182.615 84.704 182.444 84.48C182.273 84.2453 182.033 84.128 181.724 84.128C181.511 84.128 181.319 84.1813 181.148 84.288C180.977 84.3947 180.839 84.5653 180.732 84.8C180.636 85.024 180.588 85.3333 180.588 85.728V90H176.972V81.248H180.412V83.76L179.708 83.056C180.039 82.3947 180.481 81.904 181.036 81.584C181.591 81.2533 182.209 81.088 182.892 81.088C183.66 81.088 184.337 81.2907 184.924 81.696C185.521 82.0907 185.921 82.72 186.124 83.584L185.02 83.408C185.34 82.6827 185.804 82.1173 186.412 81.712C187.031 81.296 187.745 81.088 188.556 81.088ZM205.197 81.088C205.858 81.088 206.45 81.2267 206.973 81.504C207.506 81.7707 207.922 82.192 208.221 82.768C208.53 83.344 208.685 84.0907 208.685 85.008V90H205.069V85.632C205.069 85.088 204.978 84.704 204.797 84.48C204.615 84.2453 204.381 84.128 204.093 84.128C203.879 84.128 203.687 84.1813 203.517 84.288C203.346 84.3947 203.207 84.5653 203.101 84.8C203.005 85.024 202.957 85.3333 202.957 85.728V90H199.341V85.632C199.341 85.088 199.255 84.704 199.085 84.48C198.914 84.2453 198.674 84.128 198.365 84.128C198.151 84.128 197.959 84.1813 197.789 84.288C197.618 84.3947 197.479 84.5653 197.373 84.8C197.277 85.024 197.229 85.3333 197.229 85.728V90H193.613V81.248H197.053V83.76L196.349 83.056C196.679 82.3947 197.122 81.904 197.677 81.584C198.231 81.2533 198.85 81.088 199.533 81.088C200.301 81.088 200.978 81.2907 201.565 81.696C202.162 82.0907 202.562 82.72 202.765 83.584L201.661 83.408C201.981 82.6827 202.445 82.1173 203.053 81.712C203.671 81.296 204.386 81.088 205.197 81.088ZM213.901 90.16C213.208 90.16 212.578 90.0213 212.013 89.744C211.458 89.456 211.021 89.0133 210.701 88.416C210.381 87.808 210.221 87.0293 210.221 86.08V81.248H213.837V85.456C213.837 86.0747 213.938 86.5067 214.141 86.752C214.344 86.9973 214.621 87.12 214.973 87.12C215.186 87.12 215.384 87.0667 215.565 86.96C215.757 86.8427 215.912 86.656 216.029 86.4C216.146 86.1333 216.205 85.7867 216.205 85.36V81.248H219.821V90H216.381V87.472L217.069 88.16C216.76 88.8427 216.317 89.3493 215.741 89.68C215.176 90 214.562 90.16 213.901 90.16ZM227.505 81.088C228.177 81.088 228.785 81.2267 229.329 81.504C229.873 81.7707 230.3 82.192 230.609 82.768C230.929 83.344 231.089 84.0907 231.089 85.008V90H227.473V85.632C227.473 85.088 227.377 84.704 227.185 84.48C226.993 84.2453 226.732 84.128 226.401 84.128C226.156 84.128 225.926 84.1867 225.713 84.304C225.51 84.4107 225.345 84.592 225.217 84.848C225.1 85.104 225.041 85.4507 225.041 85.888V90H221.425V81.248H224.865V83.808L224.177 83.072C224.518 82.4107 224.977 81.9147 225.553 81.584C226.14 81.2533 226.79 81.088 227.505 81.088ZM232.659 90V81.248H236.275V90H232.659ZM234.467 80.544C233.806 80.544 233.278 80.368 232.883 80.016C232.489 79.664 232.291 79.2267 232.291 78.704C232.291 78.1813 232.489 77.744 232.883 77.392C233.278 77.04 233.806 76.864 234.467 76.864C235.129 76.864 235.657 77.0293 236.051 77.36C236.446 77.6907 236.643 78.1173 236.643 78.64C236.643 79.1947 236.446 79.6533 236.051 80.016C235.657 80.368 235.129 80.544 234.467 80.544ZM242.102 90.16C240.897 90.16 239.958 89.872 239.286 89.296C238.614 88.7093 238.278 87.8133 238.278 86.608V79.28H241.894V86.576C241.894 86.8427 241.963 87.0507 242.102 87.2C242.251 87.3493 242.433 87.424 242.646 87.424C242.955 87.424 243.227 87.344 243.462 87.184L244.326 89.696C244.049 89.856 243.713 89.9733 243.318 90.048C242.934 90.1227 242.529 90.16 242.102 90.16ZM237.078 84.368V81.728H243.686V84.368H237.078ZM247.001 93.264C246.521 93.264 246.031 93.1893 245.529 93.04C245.039 92.9013 244.644 92.7147 244.345 92.48L245.545 90C245.727 90.1387 245.929 90.2507 246.153 90.336C246.388 90.4213 246.612 90.464 246.825 90.464C247.145 90.464 247.391 90.3947 247.561 90.256C247.732 90.128 247.871 89.9307 247.977 89.664L248.345 88.736L248.601 88.384L251.401 81.248H254.825L251.225 90.176C250.905 90.976 250.532 91.6 250.105 92.048C249.689 92.496 249.22 92.8107 248.697 92.992C248.185 93.1733 247.62 93.264 247.001 93.264ZM247.849 90.4L244.041 81.248H247.753L250.377 88.064L247.849 90.4ZM260.287 90V78.8H263.391L269.087 85.616H267.647V78.8H271.327V90H268.223L262.527 83.184H263.967V90H260.287ZM276.682 90.16C275.989 90.16 275.36 90.0213 274.794 89.744C274.24 89.456 273.802 89.0133 273.482 88.416C273.162 87.808 273.002 87.0293 273.002 86.08V81.248H276.618V85.456C276.618 86.0747 276.72 86.5067 276.922 86.752C277.125 86.9973 277.402 87.12 277.754 87.12C277.968 87.12 278.165 87.0667 278.346 86.96C278.538 86.8427 278.693 86.656 278.81 86.4C278.928 86.1333 278.986 85.7867 278.986 85.36V81.248H282.602V90H279.162V87.472L279.85 88.16C279.541 88.8427 279.098 89.3493 278.522 89.68C277.957 90 277.344 90.16 276.682 90.16ZM284.206 90V81.248H287.646V83.888L287.086 83.136C287.353 82.4533 287.78 81.9413 288.366 81.6C288.953 81.2587 289.657 81.088 290.478 81.088V84.288C290.318 84.2667 290.174 84.2507 290.046 84.24C289.929 84.2293 289.806 84.224 289.678 84.224C289.134 84.224 288.686 84.368 288.334 84.656C287.993 84.9333 287.822 85.4187 287.822 86.112V90H284.206ZM294.927 90.16C294.18 90.16 293.444 90.08 292.719 89.92C291.994 89.76 291.407 89.552 290.959 89.296L291.951 86.912C292.367 87.1573 292.847 87.3493 293.391 87.488C293.946 87.6267 294.484 87.696 295.007 87.696C295.444 87.696 295.738 87.6587 295.887 87.584C296.047 87.5093 296.127 87.408 296.127 87.28C296.127 87.152 296.036 87.0613 295.855 87.008C295.674 86.944 295.434 86.896 295.135 86.864C294.836 86.832 294.506 86.7947 294.143 86.752C293.791 86.6987 293.434 86.624 293.071 86.528C292.708 86.432 292.378 86.288 292.079 86.096C291.78 85.904 291.54 85.648 291.359 85.328C291.178 84.9973 291.087 84.5813 291.087 84.08C291.087 83.5253 291.252 83.024 291.583 82.576C291.924 82.128 292.426 81.7707 293.087 81.504C293.759 81.2267 294.586 81.088 295.567 81.088C296.207 81.088 296.847 81.1467 297.487 81.264C298.127 81.3813 298.676 81.5627 299.135 81.808L298.143 84.192C297.695 83.9467 297.252 83.7813 296.815 83.696C296.388 83.6 295.988 83.552 295.615 83.552C295.156 83.552 294.842 83.5947 294.671 83.68C294.511 83.7653 294.431 83.8613 294.431 83.968C294.431 84.096 294.522 84.192 294.703 84.256C294.884 84.32 295.124 84.368 295.423 84.4C295.722 84.432 296.047 84.4747 296.399 84.528C296.762 84.5707 297.119 84.6453 297.471 84.752C297.834 84.848 298.164 84.992 298.463 85.184C298.762 85.376 299.002 85.6373 299.183 85.968C299.364 86.288 299.455 86.6987 299.455 87.2C299.455 87.7227 299.29 88.2133 298.959 88.672C298.628 89.12 298.127 89.4827 297.455 89.76C296.783 90.0267 295.94 90.16 294.927 90.16ZM300.55 90V81.248H304.166V90H300.55ZM302.358 80.544C301.697 80.544 301.169 80.368 300.774 80.016C300.379 79.664 300.182 79.2267 300.182 78.704C300.182 78.1813 300.379 77.744 300.774 77.392C301.169 77.04 301.697 76.864 302.358 76.864C303.019 76.864 303.547 77.0293 303.942 77.36C304.337 77.6907 304.534 78.1173 304.534 78.64C304.534 79.1947 304.337 79.6533 303.942 80.016C303.547 80.368 303.019 80.544 302.358 80.544ZM311.849 81.088C312.521 81.088 313.129 81.2267 313.673 81.504C314.217 81.7707 314.643 82.192 314.953 82.768C315.273 83.344 315.433 84.0907 315.433 85.008V90H311.817V85.632C311.817 85.088 311.721 84.704 311.529 84.48C311.337 84.2453 311.075 84.128 310.745 84.128C310.499 84.128 310.27 84.1867 310.057 84.304C309.854 84.4107 309.689 84.592 309.561 84.848C309.443 85.104 309.385 85.4507 309.385 85.888V90H305.769V81.248H309.209V83.808L308.521 83.072C308.862 82.4107 309.321 81.9147 309.897 81.584C310.483 81.2533 311.134 81.088 311.849 81.088ZM321.607 93.264C320.743 93.264 319.933 93.1733 319.175 92.992C318.418 92.8107 317.767 92.5387 317.223 92.176L318.439 89.712C318.781 89.9787 319.213 90.1867 319.735 90.336C320.269 90.496 320.77 90.576 321.239 90.576C321.986 90.576 322.519 90.416 322.839 90.096C323.159 89.7867 323.319 89.3387 323.319 88.752V88.016L323.479 85.296L323.495 82.576V81.248H326.935V88.256C326.935 89.952 326.466 91.2107 325.527 92.032C324.589 92.8533 323.282 93.264 321.607 93.264ZM320.903 89.52C320.167 89.52 319.479 89.3493 318.839 89.008C318.199 88.656 317.682 88.1653 317.287 87.536C316.893 86.9067 316.695 86.16 316.695 85.296C316.695 84.432 316.893 83.6853 317.287 83.056C317.682 82.4267 318.199 81.9413 318.839 81.6C319.479 81.2587 320.167 81.088 320.903 81.088C321.661 81.088 322.279 81.2373 322.759 81.536C323.25 81.8347 323.613 82.2987 323.847 82.928C324.082 83.5467 324.199 84.336 324.199 85.296C324.199 86.256 324.082 87.0507 323.847 87.68C323.613 88.2987 323.25 88.7627 322.759 89.072C322.279 89.3707 321.661 89.52 320.903 89.52ZM321.863 86.704C322.151 86.704 322.407 86.6453 322.631 86.528C322.855 86.4107 323.031 86.2453 323.159 86.032C323.287 85.8187 323.351 85.5733 323.351 85.296C323.351 85.008 323.287 84.7627 323.159 84.56C323.031 84.3467 322.855 84.1867 322.631 84.08C322.407 83.9627 322.151 83.904 321.863 83.904C321.586 83.904 321.33 83.9627 321.095 84.08C320.871 84.1867 320.69 84.3467 320.551 84.56C320.423 84.7627 320.359 85.008 320.359 85.296C320.359 85.5733 320.423 85.8187 320.551 86.032C320.69 86.2453 320.871 86.4107 321.095 86.528C321.33 86.6453 321.586 86.704 321.863 86.704ZM339.235 90.256C338.339 90.256 337.507 90.1173 336.739 89.84C335.982 89.552 335.321 89.1467 334.755 88.624C334.201 88.1013 333.769 87.4827 333.459 86.768C333.15 86.0533 332.995 85.264 332.995 84.4C332.995 83.536 333.15 82.7467 333.459 82.032C333.769 81.3173 334.201 80.6987 334.755 80.176C335.321 79.6533 335.982 79.2533 336.739 78.976C337.507 78.688 338.339 78.544 339.235 78.544C340.334 78.544 341.305 78.736 342.147 79.12C343.001 79.504 343.705 80.0587 344.259 80.784L341.875 82.912C341.545 82.496 341.177 82.176 340.771 81.952C340.377 81.7173 339.929 81.6 339.427 81.6C339.033 81.6 338.675 81.664 338.355 81.792C338.035 81.92 337.758 82.1067 337.523 82.352C337.299 82.5973 337.123 82.896 336.995 83.248C336.867 83.5893 336.803 83.9733 336.803 84.4C336.803 84.8267 336.867 85.216 336.995 85.568C337.123 85.9093 337.299 86.2027 337.523 86.448C337.758 86.6933 338.035 86.88 338.355 87.008C338.675 87.136 339.033 87.2 339.427 87.2C339.929 87.2 340.377 87.088 340.771 86.864C341.177 86.6293 341.545 86.304 341.875 85.888L344.259 88.016C343.705 88.7307 343.001 89.2853 342.147 89.68C341.305 90.064 340.334 90.256 339.235 90.256ZM350.534 90V88.448L350.278 88.032V85.088C350.278 84.6613 350.144 84.336 349.878 84.112C349.622 83.888 349.2 83.776 348.614 83.776C348.219 83.776 347.819 83.84 347.414 83.968C347.008 84.0853 346.662 84.2507 346.374 84.464L345.222 82.08C345.734 81.76 346.347 81.5147 347.062 81.344C347.776 81.1733 348.475 81.088 349.158 81.088C350.662 81.088 351.824 81.424 352.646 82.096C353.478 82.768 353.894 83.8347 353.894 85.296V90H350.534ZM348.054 90.16C347.339 90.16 346.742 90.0373 346.262 89.792C345.782 89.5467 345.419 89.2213 345.174 88.816C344.928 88.4 344.806 87.9413 344.806 87.44C344.806 86.8747 344.95 86.3947 345.238 86C345.526 85.6053 345.963 85.3067 346.549 85.104C347.147 84.9013 347.899 84.8 348.806 84.8H350.63V86.544H349.382C348.998 86.544 348.715 86.608 348.534 86.736C348.363 86.8533 348.278 87.0347 348.278 87.28C348.278 87.4827 348.352 87.6533 348.502 87.792C348.662 87.92 348.875 87.984 349.141 87.984C349.387 87.984 349.611 87.92 349.814 87.792C350.027 87.6533 350.182 87.44 350.278 87.152L350.742 88.224C350.603 88.8747 350.31 89.36 349.862 89.68C349.414 90 348.811 90.16 348.054 90.16ZM355.456 90V81.248H358.896V83.888L358.336 83.136C358.603 82.4533 359.03 81.9413 359.616 81.6C360.203 81.2587 360.907 81.088 361.728 81.088V84.288C361.568 84.2667 361.424 84.2507 361.296 84.24C361.179 84.2293 361.056 84.224 360.928 84.224C360.384 84.224 359.936 84.368 359.584 84.656C359.243 84.9333 359.072 85.4187 359.072 86.112V90H355.456ZM367.507 90.16C366.44 90.16 365.507 89.9627 364.707 89.568C363.918 89.1733 363.304 88.6347 362.867 87.952C362.43 87.2587 362.211 86.48 362.211 85.616C362.211 84.7307 362.424 83.9467 362.851 83.264C363.288 82.5813 363.88 82.048 364.627 81.664C365.384 81.28 366.232 81.088 367.171 81.088C368.035 81.088 368.83 81.2587 369.555 81.6C370.291 81.9413 370.878 82.448 371.315 83.12C371.763 83.792 371.987 84.624 371.987 85.616C371.987 85.744 371.982 85.888 371.971 86.048C371.96 86.1973 371.95 86.336 371.939 86.464H365.203V84.72H370.019L368.659 85.184C368.659 84.8427 368.595 84.5547 368.467 84.32C368.35 84.0747 368.184 83.888 367.971 83.76C367.758 83.6213 367.502 83.552 367.203 83.552C366.904 83.552 366.643 83.6213 366.419 83.76C366.206 83.888 366.04 84.0747 365.923 84.32C365.806 84.5547 365.747 84.8427 365.747 85.184V85.728C365.747 86.1013 365.822 86.4213 365.971 86.688C366.12 86.9547 366.334 87.1573 366.611 87.296C366.888 87.424 367.224 87.488 367.619 87.488C368.024 87.488 368.355 87.4347 368.611 87.328C368.878 87.2213 369.155 87.0613 369.443 86.848L371.331 88.752C370.904 89.2107 370.376 89.5627 369.747 89.808C369.128 90.0427 368.382 90.16 367.507 90.16Z" fill="#7D7D7D"/>
<path d="M116.499 51.4987C116.436 58.4604 113.906 62.0134 111 63.796C108.093 65.5786 103 55.9991 103 55.9991L116.499 51.4987Z" fill="white"/>
</g>
<defs>
<filter id="filter0_d_2805_15" x="29" y="8.99609" width="113" height="121.008" filterUnits="userSpaceOnUse" color-interpolation-filters="sRGB">
<feFlood flood-opacity="0" result="BackgroundImageFix"/>
<feColorMatrix in="SourceAlpha" type="matrix" values="0 0 0 0 0 0 0 0 0 0 0 0 0 0 0 0 0 0 127 0" result="hardAlpha"/>
<feOffset dx="4" dy="8"/>
<feGaussianBlur stdDeviation="5"/>
<feComposite in2="hardAlpha" operator="out"/>
<feColorMatrix type="matrix" values="0 0 0 0 0 0 0 0 0 0 0 0 0 0 0 0 0 0 0.25 0"/>
<feBlend mode="normal" in2="BackgroundImageFix" result="effect1_dropShadow_2805_15"/>
<feBlend mode="normal" in="SourceGraphic" in2="effect1_dropShadow_2805_15" result="shape"/>
</filter>
<linearGradient id="paint0_linear_2805_15" x1="263.045" y1="31.2576" x2="294.852" y2="27.7459" gradientUnits="userSpaceOnUse">
<stop stop-color="#A5A3A4"/>
<stop offset="1" stop-color="#EFEDEE"/>
</linearGradient>
<clipPath id="clip0_2805_15">
<rect width="421" height="126" fill="white"/>
</clipPath>
</defs>
</svg>
