<svg width="421" height="126" viewBox="0 0 421 126" fill="none" xmlns="http://www.w3.org/2000/svg">
<g clip-path="url(#clip0_2821_8)">
<g filter="url(#filter0_d_2821_8)">
<path d="M244.872 94.4933L220.372 108.398C214.249 111.872 206.751 111.872 200.628 108.398L176.128 94.4933C169.868 90.9405 166 84.2975 166 77.0993V47.9007C166 40.7025 169.868 34.0595 176.128 30.5067L200.628 16.6023C206.751 13.1277 214.249 13.1277 220.372 16.6023L244.872 30.5067C251.132 34.0595 255 40.7025 255 47.9007V77.0993C255 84.2975 251.132 90.9405 244.872 94.4933Z" fill="#74BB8D"/>
<path d="M244.872 94.4933L220.372 108.398C214.249 111.872 206.751 111.872 200.628 108.398L176.128 94.4933C169.868 90.9405 166 84.2975 166 77.0993V47.9007C166 40.7025 169.868 34.0595 176.128 30.5067L200.628 16.6023C206.751 13.1277 214.249 13.1277 220.372 16.6023L244.872 30.5067C251.132 34.0595 255 40.7025 255 47.9007V77.0993C255 84.2975 251.132 90.9405 244.872 94.4933Z" stroke="white" stroke-width="4"/>
</g>
<path d="M210.264 14.0521C207.152 19.9348 199.476 46.9803 202.922 71.462C204.941 85.8025 184.8 83.6522 182.911 72.2137C181.679 64.756 186.496 52.0559 205.964 59.2919C219.135 64.1874 228.844 63.3539 238.718 60.0477" stroke="white" stroke-width="10"/>
<path d="M245.499 52.4987C245.436 59.4604 242.906 63.0134 240 64.796C237.093 66.5786 232 56.9991 232 56.9991L245.499 52.4987Z" fill="white"/>
</g>
<defs>
<filter id="filter0_d_2821_8" x="158" y="9.99609" width="113" height="121.008" filterUnits="userSpaceOnUse" color-interpolation-filters="sRGB">
<feFlood flood-opacity="0" result="BackgroundImageFix"/>
<feColorMatrix in="SourceAlpha" type="matrix" values="0 0 0 0 0 0 0 0 0 0 0 0 0 0 0 0 0 0 127 0" result="hardAlpha"/>
<feOffset dx="4" dy="8"/>
<feGaussianBlur stdDeviation="5"/>
<feComposite in2="hardAlpha" operator="out"/>
<feColorMatrix type="matrix" values="0 0 0 0 0 0 0 0 0 0 0 0 0 0 0 0 0 0 0.25 0"/>
<feBlend mode="normal" in2="BackgroundImageFix" result="effect1_dropShadow_2821_8"/>
<feBlend mode="normal" in="SourceGraphic" in2="effect1_dropShadow_2821_8" result="shape"/>
</filter>
<clipPath id="clip0_2821_8">
<rect width="421" height="126" fill="white"/>
</clipPath>
</defs>
</svg>
